<?xml version="1.0" standalone="no"?>
<!DOCTYPE svg PUBLIC "-//W3C//DTD SVG 20010904//EN"
 "http://www.w3.org/TR/2001/REC-SVG-20010904/DTD/svg10.dtd">
<svg version="1.0" xmlns="http://www.w3.org/2000/svg"
 width="2880.000000pt" height="1472.000000pt" viewBox="0 0 2880.000000 1472.000000"
 preserveAspectRatio="xMidYMid meet">

<g transform="translate(0.000000,1472.000000) scale(0.100000,-0.100000)"
fill="#000000" stroke="none">
<path d="M397 14463 c-4 -3 -7 -3140 -7 -6970 l0 -6963 13975 0 13975 0 0
6970 0 6970 -13968 0 c-7683 0 -13972 -3 -13975 -7z m27303 -5448 l0 -4805
-13327 -2 c-7331 -2 -13330 -2 -13333 0 -3 2 -6 2166 -8 4808 l-3 4804 13335
0 13336 0 0 -4805z m-23387 -5694 c16 -12 17 -75 17 -710 0 -529 -3 -700 -12
-709 -15 -15 -201 -16 -229 -2 -18 10 -19 29 -19 715 0 660 1 705 18 715 25
15 205 9 225 -9z m6850 0 c16 -12 17 -75 17 -717 l0 -703 -42 -12 c-44 -11
-139 -5 -170 12 -14 8 -18 23 -18 65 l0 56 -52 -48 c-29 -26 -78 -59 -108 -73
-47 -22 -69 -26 -150 -26 -112 0 -163 14 -222 58 -82 63 -135 157 -160 287
-15 74 -13 271 2 345 40 196 184 339 354 352 96 8 155 -10 236 -73 l70 -54 2
262 3 262 25 14 c33 17 190 12 213 -7z m7428 -40 c27 -27 29 -35 29 -100 0
-82 -12 -114 -49 -131 -62 -28 -177 -22 -225 13 -44 32 -38 183 10 225 22 19
36 22 115 22 87 0 92 -1 120 -29z m2300 -46 c94 -24 180 -73 201 -116 29 -56
21 -171 -13 -190 -14 -7 -31 -3 -71 20 -106 58 -180 76 -318 76 -116 0 -129
-2 -187 -29 -69 -31 -148 -106 -181 -172 -72 -142 -78 -360 -12 -502 39 -85
118 -162 195 -192 76 -30 237 -34 298 -7 l37 16 0 155 0 156 -130 0 c-151 0
-150 -1 -150 104 0 53 4 70 21 87 19 19 30 20 232 18 117 -1 226 -6 243 -11
18 -5 36 -19 43 -34 7 -17 11 -120 11 -324 l0 -300 -41 -29 c-107 -78 -387
-114 -590 -75 -121 23 -218 73 -305 159 -78 78 -112 133 -151 245 -35 102 -44
314 -18 441 19 98 69 211 125 285 79 105 242 203 382 230 94 18 291 12 379
-11z m-17441 -11 c18 -20 49 -99 150 -384 92 -260 254 -706 295 -812 21 -53
35 -103 32 -112 -4 -9 -19 -21 -34 -27 -37 -15 -227 -6 -247 10 -9 7 -36 78
-62 157 l-46 144 -258 0 -258 0 -20 -57 c-12 -32 -33 -97 -47 -145 -14 -47
-33 -92 -42 -99 -22 -19 -214 -19 -236 0 -25 20 -21 46 29 182 25 68 68 187
94 264 53 153 183 524 257 730 25 72 50 136 56 143 18 22 70 30 195 27 106 -2
126 -5 142 -21z m6230 0 c20 -20 59 -122 226 -594 57 -162 122 -344 145 -405
115 -315 116 -320 72 -332 -47 -13 -234 -6 -249 9 -7 7 -35 76 -62 153 l-49
140 -256 3 -256 2 -45 -144 c-25 -79 -52 -149 -60 -155 -22 -18 -154 -25 -204
-12 -24 7 -46 19 -49 28 -3 8 11 63 31 122 21 58 71 201 111 316 150 429 240
682 293 820 27 68 51 76 210 72 105 -3 126 -7 142 -23z m8039 0 c18 -18 114
-275 266 -709 34 -99 93 -260 129 -358 76 -204 83 -244 46 -264 -27 -14 -128
-17 -203 -7 -53 8 -54 10 -116 194 l-38 115 -254 0 -254 0 -51 -150 -51 -149
-39 -9 c-61 -13 -196 -2 -210 18 -17 23 -37 -39 241 755 181 515 194 552 205
565 16 19 47 22 188 21 107 -2 125 -5 141 -22z m-11811 -80 c21 -14 22 -23 22
-130 l0 -114 103 0 c132 0 142 -8 142 -115 0 -103 -3 -105 -137 -105 l-110 0
4 -252 c3 -218 5 -257 21 -285 25 -46 75 -58 146 -36 52 16 54 16 68 -3 18
-24 13 -165 -7 -188 -20 -25 -107 -46 -185 -46 -137 0 -220 44 -273 144 l-27
51 -3 308 -3 307 -64 0 c-81 0 -95 16 -95 106 0 47 5 67 21 88 19 24 27 27 78
24 l56 -3 3 115 c3 146 6 150 131 150 62 0 93 -4 109 -16z m-798 -238 c129
-28 224 -108 254 -214 13 -49 16 -116 16 -425 0 -423 12 -382 -112 -382 -91 1
-108 12 -108 67 l0 39 -42 -34 c-89 -72 -120 -82 -253 -82 -101 0 -127 3 -166
21 -125 58 -188 175 -169 316 10 74 31 119 76 162 84 82 197 116 392 116 l122
1 0 62 c0 117 -47 157 -183 157 -95 0 -167 -18 -249 -63 l-58 -32 -21 22 c-30
30 -36 106 -12 153 48 93 326 156 513 116z m1750 3 c127 -20 228 -95 266 -197
16 -41 18 -93 22 -423 3 -328 1 -377 -12 -388 -20 -17 -181 -18 -200 -2 -10 8
-12 25 -9 51 3 22 2 40 -2 40 -3 0 -25 -15 -48 -34 -86 -70 -120 -81 -242 -81
-98 0 -116 3 -166 26 -116 54 -173 143 -173 269 -1 88 21 144 78 203 79 80
168 108 366 116 164 7 159 3 145 98 -21 141 -194 170 -407 69 -42 -20 -81 -36
-88 -36 -6 0 -20 21 -31 46 -34 77 -9 152 59 181 20 8 57 24 81 35 75 34 241
47 361 27z m6080 1 c86 -14 162 -54 214 -111 69 -77 69 -79 73 -505 4 -332 2
-382 -11 -393 -21 -17 -179 -19 -199 -3 -11 9 -13 24 -10 54 7 46 8 46 -81
-17 -106 -77 -267 -87 -393 -25 -103 51 -151 131 -152 255 -1 98 13 140 67
197 85 91 162 117 367 126 l150 7 3 49 c8 123 -74 183 -225 166 -78 -9 -81
-10 -187 -58 l-78 -36 -24 27 c-19 22 -24 40 -24 80 0 71 18 93 109 135 120
56 258 74 401 52z m1256 -30 c71 -34 118 -91 150 -175 16 -45 18 -91 22 -421
3 -332 2 -372 -13 -384 -21 -18 -191 -20 -222 -2 -22 12 -22 14 -25 340 -3
314 -4 329 -25 368 -53 99 -153 109 -258 24 -81 -65 -80 -56 -84 -410 -2 -222
-6 -317 -15 -322 -6 -4 -56 -8 -110 -8 -79 0 -103 3 -118 17 -17 15 -18 44
-18 489 l0 473 22 15 c25 18 162 22 187 7 8 -5 16 -32 19 -65 2 -31 6 -56 8
-56 1 0 33 23 69 50 36 28 80 57 96 66 85 43 220 41 315 -6z m950 27 c75 -16
149 -58 169 -98 30 -57 16 -199 -19 -199 -9 0 -37 14 -63 30 -97 62 -198 75
-273 38 -82 -42 -120 -132 -120 -283 0 -55 6 -113 16 -146 28 -93 113 -159
206 -159 42 0 121 33 177 74 27 20 56 36 64 36 38 0 52 -161 18 -217 -70 -114
-352 -149 -530 -66 -95 45 -186 178 -210 308 -15 82 -14 229 4 319 51 269 285
421 561 363z m906 2 c123 -26 238 -113 284 -214 50 -110 70 -307 35 -349 -12
-14 -50 -16 -327 -16 l-314 0 0 -23 c0 -13 7 -48 16 -78 45 -151 217 -196 455
-120 112 36 103 35 123 15 17 -16 23 -138 8 -160 -11 -17 -90 -55 -147 -71
-27 -8 -107 -17 -176 -20 -160 -7 -250 10 -336 66 -145 94 -207 228 -206 451
0 173 45 301 138 396 53 53 157 109 229 124 61 12 158 11 218 -1z m3381 -20
c26 -32 25 -209 -1 -233 -17 -15 -23 -15 -62 -1 -23 8 -55 15 -69 15 -46 0
-131 -74 -170 -148 -9 -16 -12 -105 -11 -317 l0 -294 -22 -13 c-14 -7 -61 -12
-115 -12 -146 -1 -133 -50 -133 503 0 406 2 469 16 489 14 20 24 22 97 22 45
0 88 -4 95 -8 8 -5 13 -32 14 -66 1 -31 6 -59 10 -62 4 -3 22 12 40 32 90 103
138 128 228 119 49 -4 69 -11 83 -26z m2459 21 c21 -6 42 -19 48 -30 5 -10 10
-61 10 -113 0 -79 -3 -97 -18 -111 -18 -15 -22 -15 -58 0 -78 33 -144 3 -214
-97 l-40 -57 0 -300 c0 -337 8 -304 -78 -317 -53 -8 -144 2 -166 18 -15 11
-16 61 -17 486 0 433 1 475 17 492 14 16 31 19 99 19 50 0 86 -5 93 -12 7 -7
12 -38 12 -70 0 -32 3 -58 7 -58 3 0 30 26 59 59 83 91 152 117 246 91z m767
-5 c191 -40 311 -166 346 -361 19 -104 18 -173 -1 -275 -39 -206 -162 -345
-341 -385 -101 -22 -283 -15 -360 14 -122 46 -213 148 -255 287 -30 94 -32
290 -4 380 80 267 324 401 615 340z m2397 -25 c126 -62 193 -174 220 -371 14
-97 14 -121 0 -217 -24 -170 -74 -276 -164 -344 -69 -53 -115 -70 -207 -75
-96 -6 -163 15 -240 77 l-50 39 -5 -226 -5 -227 -25 -14 c-33 -17 -200 -12
-223 7 -16 12 -17 72 -17 672 0 771 -12 699 118 699 42 0 84 -5 92 -10 10 -6
15 -26 15 -65 0 -59 10 -68 40 -35 31 34 145 103 193 117 76 21 183 10 258
-27z m-17415 4 c18 -16 19 -38 19 -332 0 -300 1 -318 21 -359 57 -118 170
-121 289 -7 l55 53 3 314 c3 288 4 316 21 331 14 12 40 16 112 17 141 1 129
49 129 -516 0 -409 -2 -474 -15 -485 -20 -16 -163 -17 -192 -1 -20 10 -23 20
-23 66 0 30 -3 55 -6 55 -3 0 -29 -20 -57 -45 -29 -25 -77 -58 -107 -73 -49
-24 -66 -27 -160 -27 -89 1 -112 4 -153 24 -60 30 -120 97 -149 170 -22 54
-23 68 -26 426 -1 211 2 376 7 384 22 33 197 37 232 5z m3941 -1 c15 -13 138
-372 230 -671 5 -18 12 -31 15 -29 2 3 29 85 59 183 116 380 163 510 188 526
17 12 185 9 207 -2 40 -22 40 -19 -219 -770 -39 -112 -78 -210 -87 -216 -23
-17 -145 -27 -232 -19 -92 8 -105 19 -134 117 -22 75 -142 427 -229 673 -76
215 -73 225 82 225 81 0 105 -3 120 -17z m6998 -3 c19 -19 20 -33 20 -495 l0
-474 -22 -13 c-14 -8 -59 -13 -116 -13 -142 0 -130 -47 -127 512 l3 467 22 18
c34 28 192 26 220 -2z m4870 0 c19 -19 20 -33 20 -337 0 -302 1 -319 21 -360
24 -49 77 -83 130 -83 45 0 110 35 161 87 l43 44 3 317 c3 378 -7 352 131 352
62 0 93 -4 109 -16 l22 -15 0 -478 c0 -433 -2 -480 -17 -492 -21 -18 -159 -19
-190 -1 -20 11 -23 21 -23 68 l0 55 -57 -47 c-96 -78 -151 -99 -263 -99 -84 0
-102 3 -152 28 -96 47 -157 139 -177 267 -6 36 -11 206 -11 378 0 378 -10 352
135 352 82 0 98 -3 115 -20z"/>
<path d="M23005 12049 c-162 -10 -335 -26 -401 -39 -33 -6 -124 -22 -204 -36
-166 -29 -469 -103 -550 -134 -30 -12 -73 -28 -95 -35 -257 -84 -566 -241
-793 -402 -297 -212 -547 -466 -707 -718 -21 -33 -62 -96 -90 -140 -95 -146
-208 -390 -268 -580 -63 -198 -74 -239 -96 -330 -21 -91 -67 -484 -70 -605
l-2 -66 665 -1 666 0 4 31 c3 17 7 83 10 146 4 119 30 290 49 325 6 11 12 35
14 54 6 58 73 251 125 366 48 103 143 269 172 297 7 7 29 35 50 62 92 120 162
191 327 329 64 53 234 161 314 198 239 112 466 179 780 231 122 20 174 23 400
23 231 -1 279 -4 435 -28 352 -54 381 -61 750 -184 91 -30 203 -72 250 -93 47
-21 108 -48 137 -59 l51 -20 6 57 c3 31 8 95 11 142 4 47 11 132 17 190 14
144 14 148 22 295 4 72 10 144 13 160 3 17 7 64 9 105 1 41 5 87 8 101 8 44
-14 71 -69 85 -27 6 -88 24 -135 39 -238 76 -638 161 -935 200 -11 1 -40 5
-65 9 -25 3 -85 8 -135 11 -49 2 -108 7 -130 10 -64 8 -419 11 -540 4z"/>
<path d="M5943 11943 c-12 -10 -43 -78 -73 -158 -50 -135 -129 -338 -156 -400
-7 -16 -25 -64 -40 -105 -14 -41 -37 -100 -50 -130 -21 -52 -37 -93 -129 -335
-20 -55 -50 -129 -66 -165 -15 -36 -44 -108 -64 -160 -47 -124 -174 -445 -232
-585 -25 -60 -58 -145 -74 -188 -15 -42 -57 -150 -93 -240 -35 -89 -81 -205
-101 -257 -19 -52 -49 -123 -65 -158 -52 -109 -121 -97 613 -99 353 -1 657 1
676 5 32 7 35 11 71 112 20 58 58 157 84 220 51 123 53 129 114 295 22 61 61
161 86 223 25 63 46 118 46 124 0 5 10 33 23 61 13 29 31 75 41 102 10 28 42
118 71 200 118 335 112 329 168 166 21 -61 63 -174 93 -253 31 -79 71 -186 89
-238 30 -85 131 -357 262 -705 56 -149 89 -237 109 -295 9 -25 20 -49 25 -54
5 -6 9 -17 9 -26 0 -8 9 -31 19 -51 11 -20 16 -40 13 -46 -5 -7 -599 -10
-1862 -8 -1997 2 -1890 4 -1890 -46 0 -10 -11 -47 -24 -81 -14 -35 -46 -118
-71 -185 -26 -68 -51 -125 -56 -128 -5 -4 -9 -13 -9 -22 0 -21 -74 -215 -144
-377 -31 -71 -56 -135 -56 -142 0 -11 42 -14 223 -14 3339 0 4181 -2 4225 -7
37 -4 52 -10 52 -20 0 -8 6 -27 14 -41 8 -15 38 -92 67 -172 28 -80 71 -194
94 -255 23 -60 57 -150 74 -200 18 -49 39 -103 46 -120 8 -16 25 -59 38 -95
60 -165 131 -354 167 -445 22 -55 46 -118 53 -140 38 -107 155 -414 165 -430
4 -5 8 -17 9 -26 5 -30 65 -189 71 -189 98 -6 1477 1 1483 7 5 5 18 35 30 68
88 246 193 528 275 737 19 49 34 93 34 99 0 6 11 37 24 68 13 31 45 115 71
186 27 72 51 132 54 135 3 3 24 57 45 120 22 63 47 133 57 155 27 59 139 362
139 374 0 7 -24 11 -57 12 -183 4 -1315 -1 -1322 -5 -10 -6 -46 -107 -56 -154
-5 -26 -11 -32 -27 -30 -21 3 -54 72 -123 259 -31 82 -31 95 -2 103 12 3 864
5 1893 5 l1872 -1 26 -67 c52 -132 116 -299 165 -431 28 -74 60 -157 72 -185
11 -27 50 -129 85 -225 36 -96 85 -224 108 -285 24 -60 65 -168 91 -240 26
-71 62 -168 80 -215 116 -298 155 -400 170 -442 15 -41 22 -48 44 -48 673 0
1439 0 1448 0 6 0 16 12 21 28 42 111 67 178 92 247 16 44 43 118 60 165 18
47 38 104 46 128 7 24 25 71 40 105 38 90 36 84 84 217 15 41 48 131 74 200
26 69 75 197 108 285 33 88 97 254 142 368 46 115 79 210 74 213 -19 12 -1380
5 -1394 -7 -7 -6 -16 -25 -20 -42 -13 -64 -46 -137 -60 -137 -8 0 -19 12 -26
28 -6 15 -16 41 -23 57 -7 17 -16 41 -20 55 -4 14 -21 54 -38 90 -16 36 -30
81 -31 100 l-1 35 1855 2 c1020 1 1877 -1 1904 -5 56 -8 35 33 187 -372 50
-135 111 -297 134 -360 24 -63 76 -203 115 -310 67 -185 135 -360 256 -672 51
-129 88 -231 130 -360 10 -32 23 -58 29 -59 5 0 326 -2 713 -4 548 -4 702 -2
702 8 0 7 -30 84 -66 172 -36 88 -87 219 -114 290 -42 116 -127 334 -211 545
-17 41 -41 99 -55 128 -13 29 -24 55 -24 57 0 3 -43 114 -96 248 -127 320
-243 626 -251 663 -4 17 1 22 24 27 53 10 4277 5 4291 -6 10 -8 12 -115 11
-503 -1 -556 6 -513 -84 -534 -27 -7 -81 -23 -119 -37 -143 -50 -489 -90 -681
-79 -289 16 -412 39 -643 116 -204 69 -413 169 -514 245 -15 11 -55 40 -90 65
-74 53 -284 261 -346 344 -24 31 -64 89 -88 129 -24 39 -48 75 -54 81 -11 11
-1420 10 -1431 -1 -20 -20 206 -513 291 -638 15 -22 35 -55 44 -72 9 -18 54
-86 100 -151 148 -208 322 -382 546 -547 237 -174 557 -328 921 -443 85 -27
362 -85 504 -106 178 -26 287 -44 336 -55 49 -10 665 -8 729 3 26 5 30 4 15
-3 -39 -19 72 -12 137 8 35 11 140 27 233 35 152 15 377 38 476 50 20 3 54 9
76 15 22 6 77 18 124 27 239 44 748 180 774 206 6 6 9 2838 3 2844 -3 2 -1353
4 -3001 4 l-2997 0 -18 38 c-11 20 -25 55 -32 77 -16 51 -126 340 -145 381
-31 67 -85 235 -85 264 0 17 -5 30 -13 30 -14 0 -17 7 -87 185 -28 72 -82 209
-120 305 -38 96 -85 216 -104 265 -18 50 -69 176 -111 280 -93 229 -127 316
-165 415 -16 41 -57 143 -91 225 -34 83 -79 194 -100 247 -21 53 -42 105 -48
115 -13 23 -83 201 -108 273 l-18 54 -773 -1 c-424 -1 -770 2 -767 7 6 9 -56
3 -66 -8 -10 -9 -46 -102 -259 -657 -33 -88 -69 -178 -80 -200 -10 -22 -35
-80 -54 -130 -19 -49 -63 -164 -99 -255 -36 -91 -86 -219 -112 -285 -26 -66
-56 -140 -68 -165 -11 -25 -37 -90 -58 -145 -20 -55 -56 -145 -79 -200 -22
-55 -52 -131 -66 -170 -15 -38 -64 -165 -110 -282 -46 -117 -84 -214 -84 -217
0 -3 -11 -29 -24 -58 -62 -135 -76 -172 -76 -195 l0 -24 670 1 c495 1 671 5
678 13 5 7 21 46 35 87 23 68 44 124 151 400 78 201 121 314 171 451 29 81 58
155 64 165 6 11 51 129 100 264 53 145 95 246 103 248 14 3 32 -43 193 -488
29 -80 74 -199 100 -265 26 -66 69 -178 95 -250 27 -71 64 -168 83 -215 19
-47 47 -119 62 -160 16 -41 44 -113 63 -159 61 -147 92 -245 79 -253 -15 -10
-3829 -9 -3843 0 -5 4 -22 41 -38 82 -16 41 -39 98 -51 125 -13 28 -31 75 -41
105 -16 53 -99 261 -144 365 -12 28 -33 82 -47 120 -13 39 -33 89 -44 112 -10
24 -19 47 -19 51 0 5 -6 22 -14 38 -8 16 -31 72 -51 124 -67 174 -82 214 -190
480 -59 146 -118 295 -132 332 -13 38 -42 112 -64 165 -22 54 -67 166 -98 248
-32 83 -80 202 -106 265 -26 63 -51 126 -56 140 -4 14 -23 66 -42 115 -19 50
-50 128 -67 175 -18 47 -37 90 -42 97 -7 9 -175 11 -706 7 -383 -2 -725 -1
-759 4 -39 5 -63 5 -63 -1 0 -5 -15 -6 -34 -3 l-34 7 -27 -73 c-59 -156 -87
-223 -96 -232 -5 -6 -9 -16 -9 -24 0 -8 -7 -28 -14 -45 -8 -18 -38 -90 -66
-162 -29 -71 -60 -149 -71 -172 -10 -23 -19 -47 -19 -52 0 -6 -9 -30 -19 -53
-23 -49 -152 -377 -204 -518 -38 -102 -148 -376 -171 -425 -8 -16 -26 -61 -41
-100 -129 -339 -155 -406 -173 -445 -11 -25 -43 -106 -71 -180 -28 -74 -69
-180 -92 -235 -60 -145 -99 -248 -99 -263 0 -10 131 -12 671 -9 583 3 672 6
680 19 4 8 26 64 48 124 22 60 49 134 61 164 27 70 69 183 164 445 43 116 92
248 111 295 123 311 196 508 212 568 1 8 10 12 19 10 11 -2 43 -77 101 -238
95 -264 109 -301 153 -415 17 -44 48 -127 70 -185 21 -58 63 -170 94 -250 31
-80 66 -170 77 -200 12 -30 35 -88 51 -129 16 -40 47 -126 69 -190 22 -64 44
-124 49 -133 6 -10 10 -27 10 -38 l0 -20 -1915 3 c-1053 2 -1917 6 -1918 8
-12 15 -44 96 -81 206 -24 70 -53 148 -65 173 -17 38 -82 202 -216 555 -50
133 -95 246 -142 360 -73 175 -113 282 -113 299 0 8 -3 16 -8 18 -4 2 -24 48
-45 103 -21 55 -43 109 -47 120 -14 31 -56 137 -116 290 -141 359 -176 448
-220 560 -25 66 -54 138 -64 160 -10 22 -34 84 -54 138 -20 53 -44 112 -52
131 l-17 34 -613 -4 c-400 -2 -614 0 -614 7 0 6 -7 6 -19 -1 -11 -5 -34 -10
-51 -10 -17 0 -40 5 -51 10 -13 7 -19 7 -19 0 0 -14 -197 -14 -202 1 -2 7 -12
4 -25 -8z m16760 -6340 c-7 -2 -19 -2 -25 0 -7 3 -2 5 12 5 14 0 19 -2 13 -5z"/>
<path d="M4235 7615 c-7 -5 -23 -37 -35 -70 -12 -33 -32 -85 -45 -115 -13 -30
-40 -100 -60 -155 -19 -55 -49 -131 -65 -170 -40 -98 -182 -453 -245 -615 -28
-74 -71 -182 -94 -240 -24 -58 -51 -127 -62 -155 -10 -27 -41 -106 -69 -175
-61 -151 -94 -250 -85 -258 4 -4 318 -7 698 -7 l691 0 18 35 c9 19 40 96 67
170 27 74 81 216 119 315 38 99 87 225 107 280 21 55 45 118 55 140 10 22 39
99 65 170 27 72 73 193 103 270 30 77 74 194 98 260 23 66 61 165 82 220 22
55 38 102 35 105 -10 10 -1366 5 -1378 -5z"/>
<path d="M10625 2671 c-42 -25 -61 -49 -86 -106 -46 -104 -32 -309 27 -398 27
-40 90 -76 134 -77 44 0 123 45 173 98 l47 51 0 156 0 156 -46 49 c-79 85
-180 114 -249 71z"/>
<path d="M3268 2964 c-7 -11 -178 -530 -178 -538 0 -3 83 -6 185 -6 102 0 185
3 185 8 0 12 -167 508 -177 527 -6 10 -13 14 -15 9z"/>
<path d="M9500 2969 c0 -3 -40 -125 -90 -273 -49 -147 -90 -270 -90 -272 0 -2
83 -4 185 -4 102 0 185 4 185 8 0 17 -172 527 -181 537 -5 5 -9 7 -9 4z"/>
<path d="M17455 2708 c-49 -144 -90 -269 -93 -275 -3 -10 37 -13 182 -13 121
0 186 4 186 10 0 17 -171 524 -180 533 -4 5 -47 -110 -95 -255z"/>
<path d="M4910 2321 c-82 -25 -120 -68 -120 -136 0 -50 23 -89 64 -109 70 -33
152 -14 231 55 35 31 35 31 35 115 l0 84 -92 -1 c-51 0 -104 -4 -118 -8z"/>
<path d="M6660 2315 c-62 -19 -91 -53 -98 -111 -9 -86 45 -144 135 -144 49 0
134 42 168 82 24 28 26 37 23 107 l-3 76 -90 2 c-55 1 -108 -4 -135 -12z"/>
<path d="M12740 2315 c-62 -19 -91 -53 -98 -111 -16 -150 156 -193 292 -74
l37 33 -3 81 -3 81 -90 2 c-55 1 -108 -4 -135 -12z"/>
<path d="M15842 2709 c-54 -27 -88 -77 -102 -148 -5 -30 -10 -58 -10 -62 0 -5
90 -9 200 -9 l200 0 0 28 c0 40 -27 123 -49 149 -55 65 -156 83 -239 42z"/>
<path d="M22475 2701 c-56 -16 -80 -29 -112 -63 -98 -104 -91 -405 13 -501 40
-38 116 -61 172 -53 117 16 187 108 198 262 12 154 -27 278 -104 329 -41 26
-119 39 -167 26z"/>
<path d="M24745 2671 c-22 -10 -61 -41 -86 -69 -53 -58 -59 -84 -59 -239 0
-115 11 -144 78 -205 89 -79 176 -84 250 -14 49 45 71 96 83 188 13 108 -1
198 -44 269 -52 85 -133 111 -222 70z"/>
</g>
</svg>
